<?xml version="1.0" encoding="UTF-8"?>
<svg xmlns="http://www.w3.org/2000/svg" version="1.1" viewBox="0 0 1024 700">
  <defs>
    <style>
      .cls-1 {
        fill: #006672;
      }
    </style>
  </defs>
  <!-- Generator: Adobe Illustrator 28.7.2, SVG Export Plug-In . SVG Version: 1.2.0 Build 154)  -->
  <g>
    <g id="Layer_1">
      <g>
        <path class="cls-1" d="M498.77,326.72c1.14-.53,5.03-1.84,4.42-6.31-.02-.14-.04-.28-.07-.43-1.2.27-2.09.64-2.74,1.07-1.42.94-1.73,2.18-1.76,3.31-.01.58-.08,2.45.14,2.35"/>
        <path class="cls-1" d="M522.92,342.58c.19.09.14-1.59.13-2.11-.03-1.49-.61-3.17-4.05-3.95-.83,4.33,2.86,5.57,3.92,6.06"/>
        <path class="cls-1" d="M516.56,375.14c0-2.26-1.36-4.2-3.78-4.2h-2.62v8.26h2.65c2.27,0,3.75-1.88,3.75-4.06"/>
        <path class="cls-1" d="M539.09,327.34l-5.09,2.68c-.03-.23-.05-.45-.08-.68l5.17-3.15v1.15ZM485.91,362.51l2.86.61-2.86,1.12v-1.73ZM494.39,314.23c-.17.1-.35.19-.51.29l-1.06-6.23c.19-.21.4-.42.6-.62l.98,6.56ZM510.4,305.66l-1.65-5.75c1-.14,2.02-.22,3.05-.25l-1.4,6ZM513.61,299.67l-1.85,8.86c-.35.02-.7.05-1.05.08l2.09-8.96c.27,0,.54.01.81.02M527.83,314.93c-.19-.22-.39-.43-.59-.63l3.63-7.33c.38.36.74.72,1.1,1.1l-4.13,6.86ZM530.42,318.41c-.08-.13-.16-.26-.24-.38h.04s2-9.7,2-9.7c.41.45.8.91,1.17,1.39l-2.97,8.7ZM531.28,319.9c-.07-.13-.14-.25-.21-.38l3.03-8.87c.53.72,1.01,1.48,1.46,2.25l-4.28,7ZM533.57,318.02l2.53-4.14c.36.68.69,1.38.98,2.09l-3.52,2.05ZM531.79,320.9c-.09-.19-.17-.38-.27-.56l5.94-3.46c.1.27.19.54.28.81l-5.95,3.21ZM532.38,322.38c-.07-.2-.14-.39-.21-.58l5.86-3.17c.1.33.19.66.27.99l-5.92,2.75ZM532.86,323.89c-.06-.2-.11-.39-.17-.58l5.84-2.71c.14.68.25,1.37.34,2.07l-6.01,1.22ZM533.78,328.29c-.02-.11-.03-.22-.05-.32l5.23-4.66c.06.58.09,1.17.12,1.76l-5.29,3.23ZM533.75,361.8c.01-.27.03-.54.04-.81l5.3-3.27v1.01l-5.34,3.07ZM533.66,364.03c.01-.36.03-.71.05-1.07l5.39-3.1v.52l-5.44,3.65ZM536.1,363.56l2.99-2.01v1.17l-2.99.83ZM535.34,364.78l3.75-1.05v1.05h-3.75ZM532.37,368.91c1.76,0,3.36.71,4.5,1.85l-1.1,1.29c-.85-.88-2.08-1.41-3.42-1.41-2.6,0-4.61,1.87-4.61,4.5s2.18,4.37,4.62,4.37c1.18,0,2.26-.42,3.07-1.13v-2.13h-1.5l-.74-1.69h3.93v4.55c-1.18,1.32-2.9,2.12-4.78,2.12-3.54,0-6.29-2.76-6.29-6.29s2.95-6.02,6.3-6.02M489.4,369.22h1.71v9.98h6.49v1.71h-8.2v-11.69ZM491.15,363.22c.06.61.11,1.13.15,1.56h-4.12l3.97-1.56ZM491.03,361.78c.02.29.04.57.07.84l-5.2-1.1v-.41l5.13.68ZM490.89,359.72c.02.37.05.72.07,1.06l-5.05-.66v-.9l4.99.5ZM490.71,354.66c0,.2,0,.4,0,.6l-4.81,3.21v-2.23l4.8-1.58ZM490.7,352.72c0,.31,0,.61,0,.92l-4.8,1.58v-.92l4.8-1.58ZM490.76,350.45c-.01.41-.03.83-.04,1.24l-4.82,1.58v-1.37l4.85-1.45ZM489.44,349.83l-3.53,1.05v-3.27l3.53,2.22ZM490.84,358.74l-3.1-.31,3.01-2.01c.02.8.06,1.58.09,2.32M490.86,348.43c-.02.36-.05.73-.06,1.1l-4.89-3.08v-1.12l4.96,3.11ZM491.03,346.47c-.03.29-.06.58-.08.87l-5.04-3.16v-1.14l5.12,3.44ZM491.24,344.69c-.03.23-.06.46-.09.69l-5.24-3.52v-1.02l5.33,3.85ZM492.07,340.44c-.27,1-.49,2.06-.67,3.16l-3.62-2.62,4.3-.54ZM490.06,339.71l-4.15.52v-3.16l4.15,2.64ZM492.24,339.83s-.02.06-.03.1l-6.31-4.02v-2.68l6.34,6.6ZM494.29,319.51l.44,3.12c-3.14,2-6.09,4.88-8.83,8.61v-5.25c0-2.26.29-4.45.83-6.54l7.56.06ZM488.24,318.15c-.15.11-.27.2-.37.27h-.84c.11-.36.22-.71.35-1.06l.86.79ZM490.04,316.89c-.37.25-.7.48-.99.68l-1.31-1.19c.1-.26.21-.52.32-.78l1.98,1.29ZM492.34,315.42l-.88-5.52c.17-.22.35-.45.53-.67l.99,5.8c-.22.13-.43.26-.64.38M493.87,324.41c.34-.25.68-.48,1.02-.71l1.26,8.92c-.25.3-.49.61-.72.93l-1.56-9.14ZM492.11,325.83c.29-.26.59-.5.88-.74l1.64,9.62c-.14.21-.27.43-.41.65l-2.12-9.53ZM488.81,329.16c.81-.93,1.63-1.79,2.47-2.58l1.51,6.77-3.97-4.2ZM492.92,337.9c-.12.29-.24.59-.34.9l-6.22-6.52c.22-.31.44-.61.66-.9l5.9,6.52ZM487.63,330.6l-.04.04c.19-.25.39-.49.59-.73l5.71,6.03c-.1.18-.2.35-.3.54-.09.16-.17.33-.26.5l-5.7-6.38ZM512.28,323.05c-.62-.88-1.47-1.73-2.54-2.55.79.14,1.58.31,2.35.53l.19,2.02ZM519.3,325.75l.37,2.23c-.65-.23-1.28-.44-1.89-.62l1.52-1.61ZM518.87,323.83c.2.11.4.22.6.34l-2.74,2.9c-.21-.05-.41-.11-.62-.16l2.76-3.08ZM517.32,323.03c.22.11.44.22.66.33l-2.97,3.3c-.24-.05-.47-.09-.71-.13l3.02-3.5ZM513.09,321.32c.67.21,1.33.45,1.97.71l-1.74,1.7-.23-2.4ZM516.04,322.44c.12.05.24.11.36.16l-2.94,3.4c0-.08-.02-.16-.03-.24-.04-.21-.09-.43-.15-.64l2.75-2.68ZM521.29,328.59c-.19-.08-.37-.15-.56-.22l-.64-3.84c.37.22.73.44,1.08.67l.12,3.4ZM522.99,329.32c-.24-.11-.47-.21-.71-.31l-.11-3.16c.19.13.39.26.58.39l.25,3.08ZM524.01,329.8l-.22-2.8c.22.17.44.33.65.49l.13,2.58c-.11-.06-.23-.11-.34-.17-.07-.04-.14-.07-.21-.1M528.97,331.37c.17.16.33.31.48.46l-1.24.22c-.12-.07-.24-.14-.36-.21l1.11-.47ZM525.52,329.77l-.07-1.49c.43.35.85.7,1.25,1.04l-1.18.44ZM527.54,330.06c.22.2.44.4.65.59l-1.4.59c-.32-.18-.65-.36-.98-.53l1.73-.65ZM532.07,334.57c-.6-.43-1.49-1.05-2.6-1.74l.82-.15c.73.74,1.33,1.39,1.78,1.89M533.11,324.84l3.43-.7-3.01,2.68c-.13-.69-.27-1.35-.42-1.99M528.5,315.71l1.82-3.02-.88,4.25c-.31-.43-.62-.84-.94-1.24M529.54,305.78c.2.16.39.33.58.5l-3.61,7.29c-.15-.14-.3-.28-.46-.41l3.48-7.38ZM524.67,302.57c.86.44,1.69.92,2.49,1.45l-2.17,4.86-.32-6.31ZM527.98,304.58c.26.19.52.38.78.57l-3.47,7.36c-.21-.17-.42-.33-.63-.48l3.33-7.45ZM522.73,301.67c.32.13.63.27.94.42l.48,9.6c-.33-.22-.67-.44-1.01-.64l-.42-9.37ZM521.01,301.03c.24.08.48.16.72.25l.41,9.22c-.21-.11-.42-.21-.64-.3l-.49-9.16ZM518.79,300.39c.41.1.82.21,1.23.33l.49,9.05c-.31-.12-.63-.23-.95-.34l-.76-9.04ZM513.36,308.48c-.2,0-.4,0-.6,0l1.83-8.76c.34.03.68.06,1.02.1l-2.25,8.65ZM518.55,309.14c-.33-.08-.65-.16-.99-.23-.5-.1-1-.18-1.5-.25l2.01-5.18.48,5.66ZM515.05,308.55c-.23-.02-.46-.03-.69-.04l2.23-8.56c.57.09,1.13.2,1.68.32l-3.21,8.28ZM499.28,311.79c-.67.29-1.31.59-1.92.88-.25.12-.5.25-.74.37l-.05-5.3,2.72,4.05ZM501.02,311.07c-.28.11-.56.22-.83.34l-4.11-6.12c.23-.18.47-.36.71-.54l4.23,6.32ZM502.37,310.56c-.14.05-.27.1-.41.15l-4.37-6.53c.22-.15.45-.29.67-.43l4.11,6.81ZM506.05,309.44c-.32.08-.63.17-.94.25l-1.31-8.59c.29-.1.57-.2.86-.29l1.39,8.63ZM507.38,300.13c.13-.03.26-.05.4-.07l2.47,8.6c-.51.06-1.01.13-1.51.21l-1.35-8.74ZM507.77,309.05c-.26.05-.52.11-.77.16l-1.4-8.67c.27-.07.55-.14.83-.2l1.34,8.71ZM500.57,302.45c.74-.37,1.51-.71,2.29-1.01l.81,5.32-3.1-4.3ZM504.67,309.81c-.46.13-.91.28-1.36.42l-4.22-6.99c.2-.12.4-.23.6-.34l4.98,6.91ZM495.3,313.73l-1.03-6.9c.42-.39.85-.77,1.29-1.14l.08,7.85c-.11.06-.23.12-.34.18M497.8,313.54c5.1-2.48,12.63-5.12,19.56-3.68,2.52.52,4.8,1.55,6.85,3.07v.07s.03-.05.03-.05c2.42,1.8,4.5,4.3,6.22,7.48,1.66,3.06,2.49,7.45,2.85,12.67v.06c.04.48.06.96.09,1.45-1.04-1.21-3.96-4.46-8.03-7.63-.14-.11-.28-.22-.43-.33-.05-.04-.1-.08-.15-.12-.1-.07-.19-.14-.29-.21-.06-.05-.13-.1-.19-.14-.08-.06-.17-.13-.26-.19-.07-.05-.14-.1-.22-.16-.08-.06-.16-.12-.24-.17-.08-.06-.16-.11-.24-.17-.08-.05-.15-.11-.23-.16-.09-.06-.17-.12-.26-.18-.07-.05-.14-.1-.21-.14-.1-.07-.19-.13-.29-.19-.06-.04-.12-.08-.18-.12-.11-.07-.22-.14-.33-.22-.02-.01-.05-.03-.07-.05-.46-.29-.93-.58-1.42-.87,0,0,0,0-.01,0-.15-.09-.31-.18-.46-.26-.03-.01-.05-.03-.08-.04-.15-.08-.3-.17-.45-.25-.03-.02-.06-.03-.09-.05-.15-.08-.31-.17-.46-.25-.03-.01-.05-.03-.08-.04-.16-.09-.32-.17-.49-.25-.01,0-.03-.01-.04-.02-.18-.09-.36-.18-.54-.27-.03-.01-.05-.02-.08-.04-.18-.09-.37-.18-.56-.26,0,0-.01,0-.02,0-2.79-1.28-5.85-2.24-9.06-2.51-.1.2-.2.39-.28.53l-.19.32c.05.03.1.06.15.1,2.88,1.76,4.52,3.67,4.86,5.68.02.11.03.23.05.34.03.32.03.65,0,.98-.13,1.37-.82,2.79-2.08,4.3-4.09,4.93-5.28,12.12-5.52,13.94l-5.97.03-1.78-12.61-.18-1.27-1.2-8.51-.15-1.05-.5-3.54-5.72-.04c.41-.29.92-.64,1.51-1.03l.03.02.05-.07c1.68-1.11,4.04-2.54,6.79-3.87M489.32,313.1c.41-.72.86-1.42,1.33-2.1l.49,3.08-1.82-.98ZM491.98,315.64c-.37.23-.72.45-1.05.66l-2.46-1.6c.12-.25.25-.49.38-.74l3.13,1.68ZM503.42,383.03h-.79v-16.17h.79v16.17ZM507.56,370.94l-.75-1.72h5.96c3.18,0,5.52,2.63,5.52,5.8,0,1.58-.66,3.2-1.74,4.34-1.07,1.14-2.18,1.55-3.73,1.55h-4.33v-9.97h-.92ZM522.47,383.03h-.79v-16.17h.79v16.17ZM492.29,364.78c-.05-.5-.12-1.16-.19-1.93l.04-.02h-.04c-.19-2.13-.39-5.16-.42-8.49h.01s-.01-.05-.01-.05c0-.6,0-1.21,0-1.83.01-.79.03-1.56.06-2.3h.03s-.03-.03-.03-.03c.25-5.9,1.15-10.33,2.7-13.19.58-1.08,1.22-2.07,1.89-2.98l1.77,12.55h7.7s.05-.6.05-.6c0-.08.9-8.4,5.33-13.74,1.36-1.64,2.12-3.24,2.29-4.79,3.83.6,7.47,2.02,10.29,3.39,3.3,1.6,5.97,3.35,7.41,4.37l-5.04.04-3.43,24.28h-5.34c-.23-1.7-1.26-8.15-4.92-12.56-1.49-1.8-2.09-3.44-1.82-5.02.31-1.83,1.83-3.57,4.49-5.17l-.5-.84c-2.92,1.75-4.59,3.71-4.95,5.84-.32,1.85.36,3.81,2.03,5.81,3.98,4.79,4.78,12.26,4.79,12.34l.07.6h6.99s3.43-24.32,3.43-24.32l6.47-.05c.23,6.57-.14,14.19-.51,22.03-.1,2.03-.19,4.46-.28,6.57h-.02s0,.07,0,.1h-40.36ZM539.09,355.69v.89l-5.25,3.24c.02-.34.03-.67.05-1.01l5.2-3.12ZM537.44,355.54l-3.49,2.09c.04-.88.08-1.76.12-2.64l3.37.55ZM534.23,332.45c-.04-.47-.08-.93-.12-1.39l4.98-2.62v.62l-4.86,3.39ZM535.72,332.61l3.38-2.35v2.98l-3.38-.62ZM534.35,334.16c-.02-.28-.03-.55-.05-.83l4.8.89v1.08l-4.75-1.13ZM534.43,336.13c-.01-.32-.02-.64-.04-.95l4.7,1.12v.94l-4.66-1.11ZM534.48,337.86c0-.24-.01-.48-.02-.72l4.63,1.11v1.2l-4.62-1.59ZM534.49,338.9l3.14,1.08-3.14,1.72c0-.95,0-1.88,0-2.8M534.47,343.78c0-.32,0-.65.01-.97l4.61-2.53v1.02l-4.62,2.47ZM534.43,345.81c0-.3.02-.6.02-.9l4.64-2.49v1.02l-4.67,2.36ZM534.36,348.14c.01-.41.03-.82.04-1.23l4.7-2.38v1.13l-4.74,2.49ZM536.02,348.37l3.07-1.61v2.48l-3.07-.87ZM534.3,349.74c.01-.28.02-.56.03-.83l4.76,1.35v.88l-4.79-1.4ZM539.09,353.92v.91l-4.98-.8c.02-.51.05-1.02.07-1.53l4.91,1.43ZM534.23,351.48c.01-.25.02-.49.03-.74l4.83,1.41v.75l-4.86-1.42ZM512.5,297.71c-15.73,0-28.53,12.69-28.53,28.29v58.81h57.06v-58.81c0-15.6-12.8-28.29-28.53-28.29"/>
        <polygon class="cls-1" points="455.44 392.47 455.44 402.08 462.18 402.08 462.18 400.67 456.85 400.67 456.85 392.47 455.44 392.47"/>
        <path class="cls-1" d="M469.48,400.74v1.34h-5.5v-6.67h5.25v1.33h-3.94v1.62c.58-.34,1.31-.39,2.09-.39h.98v1.33h-.98c-1.22,0-1.51.08-2.09.39v1.05h4.18Z"/>
        <path class="cls-1" d="M474.23,396.48c-.64,0-1.35.34-1.35.72s.16.67,1.46.67c2.84,0,3.28.97,3.28,2.05,0,1.6-1.47,2.37-3.37,2.37-1.16,0-2.29-.55-3.02-1.42l.95-.97c.4.43.89,1.09,2.07,1.09s2.06-.39,2.06-1.08c0-.61-.67-.73-2.06-.73-1.6,0-2.75-.53-2.75-1.98,0-1.21,1.27-2.01,2.75-2.01.97,0,1.88.17,2.86.84l-.89,1.03c-.52-.43-1.21-.58-1.98-.58"/>
        <path class="cls-1" d="M487.39,400.67c1.87,0,3.08-1.54,3.08-3.33s-1.12-3.45-3.1-3.45h-2.15v6.79h2.18ZM487.35,392.47c2.61,0,4.53,2.16,4.53,4.76,0,1.3-.54,2.63-1.43,3.57-.88.94-1.79,1.27-3.06,1.27h-3.55v-8.19h-.76l-.62-1.42h4.89Z"/>
        <path class="cls-1" d="M499.7,400.74v1.34h-5.5v-6.67h5.25v1.33h-3.94v1.62c.58-.34,1.31-.39,2.09-.39h.98v1.33h-.98c-1.22,0-1.51.08-2.09.39v1.05h4.18Z"/>
        <path class="cls-1" d="M502.08,399.46v-4.06h1.33v4.06c0,1.13.76,1.48,1.89,1.48s1.89-.35,1.89-1.48v-4.06h1.33v4.06c0,1.96-1.35,2.82-3.21,2.82h-.03c-1.85,0-3.21-.86-3.21-2.82"/>
        <polygon class="cls-1" points="510.21 402.08 513.04 398.55 510.58 395.41 512.4 395.41 513.97 397.42 515.58 395.41 517.34 395.41 514.84 398.53 517.62 402.08 515.82 402.08 513.93 399.68 512.02 402.08 510.21 402.08"/>
        <path class="cls-1" d="M527.69,393.6c-2.14,0-3.79,1.53-3.79,3.7s1.79,3.59,3.8,3.59c.97,0,1.85-.35,2.52-.93v-1.75h-1.24l-.6-1.39h3.23v3.73c-.96,1.08-2.38,1.74-3.93,1.74-2.91,0-5.16-2.27-5.16-5.16s2.42-4.94,5.18-4.94c1.44,0,2.76.58,3.69,1.52l-.9,1.05c-.69-.72-1.71-1.16-2.81-1.16"/>
        <path class="cls-1" d="M539.18,397.38c0-.59-.51-.64-.98-.64h-2.72v1.67c.52-.28,1.17-.39,1.87-.39h1.08c.4,0,.75-.22.75-.64M540.53,400.65h.46v1.43h-.58c-.69,0-1.33-.05-1.94-1.05l-1.03-1.67h-.09c-1.04,0-1.33.1-1.87.39v2.34h-1.35v-6.67h4.3c1.22,0,2.1.85,2.1,2.01,0,1.02-.57,1.65-1.53,1.94l.41.7c.32.54.78.59,1.12.59"/>
        <rect class="cls-1" x="543.57" y="395.41" width="1.31" height="6.67"/>
        <path class="cls-1" d="M550.22,396.48c-.64,0-1.35.34-1.35.72s.15.67,1.46.67c2.85,0,3.28.97,3.28,2.05,0,1.6-1.47,2.37-3.37,2.37-1.16,0-2.29-.55-3.02-1.42l.95-.97c.4.43.89,1.09,2.07,1.09s2.06-.39,2.06-1.08c0-.61-.67-.73-2.06-.73-1.6,0-2.75-.53-2.75-1.98,0-1.21,1.27-2.01,2.75-2.01.97,0,1.88.17,2.86.84l-.89,1.03c-.51-.43-1.21-.58-1.98-.58"/>
        <path class="cls-1" d="M561.42,400.74v1.34h-5.5v-6.67h5.25v1.33h-3.94v1.62c.58-.34,1.31-.39,2.09-.39h.98v1.33h-.98c-1.22,0-1.51.08-2.09.39v1.05h4.18Z"/>
        <path class="cls-1" d="M566.17,396.48c-.64,0-1.35.34-1.35.72s.15.67,1.46.67c2.85,0,3.28.97,3.28,2.05,0,1.6-1.47,2.37-3.37,2.37-1.16,0-2.29-.55-3.02-1.42l.95-.97c.4.43.89,1.09,2.07,1.09s2.06-.39,2.06-1.08c0-.61-.67-.73-2.06-.73-1.6,0-2.75-.53-2.75-1.98,0-1.21,1.27-2.01,2.75-2.01.97,0,1.88.17,2.86.84l-.89,1.03c-.51-.43-1.21-.58-1.98-.58"/>
      </g>
    </g>
  </g>
</svg>