<?xml version="1.0" encoding="UTF-8" standalone="no"?>
<!-- Created with Inkscape (http://www.inkscape.org/) -->

<svg
   version="1.1"
   id="svg1"
   width="603"
   height="585"
   viewBox="0 0 603 585"
   xmlns="http://www.w3.org/2000/svg"
   xmlns:svg="http://www.w3.org/2000/svg">
  <defs
     id="defs1" />
  <g
     id="g1">
    <path
       style="fill:#ffffff;stroke:none"
       d="m 139.50128,508.50383 h 319 v -257 c 0,-50.32559 5.55719,-102.13239 -19.30865,-148 -60.61246,-111.8059637 -232.10151,-106.9728947 -285.38271,9 -20.32666,44.24341 -14.30864,94.6062 -14.30864,142 v 254 m 155,-475.999995 -7,32 h -1 l -9,-30.999999 17,-1.000001 m 10,0 c -0.98782,12.412537 -4.76038,24.804993 -7.19983,36.999997 -1.12616,5.62967 -1.0773,11.46393 -7.80017,12 0.99249,-12.471494 5.38474,-24.793271 8,-36.999997 1.06732,-4.981688 1.21585,-10.996337 7,-12 m 11,0 c -0.53992,12.382874 -5.63025,25.018005 -8.62656,36.999997 -1.14398,4.57477 -1.45324,10.28766 -6.37344,12 l 10,-48.999997 h 5 m 15,3.000001 c -2.03433,11.821837 -8.35052,23.87445 -12.80017,34.999996 -1.85614,4.64093 -2.7327,10.05374 -8.19983,11 l 12,-47.999996 9,2 m -59,-1 c 8.73563,12.244811 10.40744,33.637267 15,47.999996 l -9,1 -5.1304,-33.999997 -0.8696,-14.999999 m 1,49.999996 -5,1 -7,-48.999996 c 6.06488,1.012024 5.51279,6.848876 6.27161,11.999999 1.76757,11.999023 3.50726,24.078127 5.72839,35.999997 m 71,4 c -6.56595,-2.76172 -5.57861,-7.81317 -6.16977,-14 -1.20431,-12.603879 -2.83023,-25.325009 -2.83023,-37.999996 8.20825,1.343628 6.92288,8.195617 7.00385,14.999999 0.14669,12.332153 1.99615,24.644777 1.99615,36.999997 m -89,-49.999996 c 3.71265,11.740478 4.37799,24.861327 6.41357,36.999996 0.38828,2.3154 3.16684,11.3642 -1.3341,11.3642 -3.70859,0 -3.59571,-7.90509 -3.99924,-10.3642 -1.98035,-12.068173 -4.97894,-24.764951 -5.08023,-36.999996 l 4,-1 m 93,1 3,0.999999 2,51.999997 c -4.16571,-2.97006 -3.97586,-8.21313 -3.99924,-13 -0.0554,-11.344724 -5.37146,-29.584042 -1.00076,-39.999996 m -103,2.999999 5,27.999997 c -6.69597,-5.167294 -13.70941,-15.216122 -17,-22.999997 l 12,-5 m 113,1 c 5.05414,3.798218 3.6091,8.267395 4.28549,14 1.59055,13.480527 1.71451,27.416197 1.71451,40.999996 -5.48911,-2.61123 -4.85416,-6.508149 -5.57562,-11.999999 -1.47138,-11.20007 -4.80667,-32.556393 -0.42438,-42.999997 m 10,5 13,7 -11,26.999997 h -1 l -1,-33.999997 m -113,40.999997 -7,2 -16.60031,-26.999997 -5.39969,-14 c 10.3064,5.265442 24.90962,28.211517 29,38.999997 m 76,-34.999997 2,29.999997 -14,-2 12,-27.999997 m -111,1 c 7.51765,11.360962 18.14799,24.904697 22,37.999996 -9.77844,-4.996149 -22.12834,-26.785457 -26,-36.999996 l 4,-1 m -8,5 23,35.999996 -5,1 -17.65509,-25.999999 c -2.82056,-4.187314 -5.43202,-7.837827 -0.34491,-10.999997 m 159,42.999995 -4,-2 18,-40.999995 c 6.67136,2.044983 2.94296,7.323975 0.86111,11.999997 -4.60903,10.35236 -9.15097,21.214909 -14.86111,30.999998 m -166,-36.999995 -1,43.999995 c -5.24435,-9.86139 -10.62561,-38.555658 1,-43.999995 m 173,42.999995 c -3.62732,-4.14197 0.12915,-8.69873 2.24384,-12.999999 4.82489,-9.813809 9.79992,-19.802819 13.75616,-29.999996 4.89786,2.877317 1.62662,7.784087 -0.30865,11.999997 -4.78776,10.43 -9.90781,21.090969 -15.69135,30.999998 m 25,-35.999998 c 9.34543,10.20728 -10.77737,32.834688 -17,42.999998 -5.29352,-3.00235 -1.93253,-7.63721 0.24692,-12 4.83667,-9.682069 9.04202,-23.370208 16.75308,-30.999998 m -210,4 c 0.37308,8.68906 2.24435,17.412689 3.57562,25.999998 0.62537,4.03387 2.19004,8.4866 -1.57562,11 -1.46645,-7.7832 -9.81067,-32.650508 -2,-36.999998 m 18,1 14,21.999998 -15,6 1,-27.999998 m 199,3 5.39584,8 -5.34262,16.999998 -10.05322,30 h -1 c 0.12918,-15.60895 4.22894,-40.914949 11,-54.999998 m -225,5 c 0.56728,7.178259 8.72574,29.884188 1,32.999998 l -3,-32.999998 h 2 m 231,139.999998 c -16.116,-11.86157 -28.95749,-29.07132 -45,-41.57562 -30.20609,-23.54404 -60.45123,-34.6221 -97,-43.42438 l -3,4 v 1 c 5.35815,2.98309 10.35645,6.53149 14.96063,10.59027 3.13388,2.76264 5.91513,5.94241 8.25388,9.40973 16.14169,23.93085 -8.96305,44.24203 -19.43289,64 -9.34464,17.63452 -15.27231,38.24847 -17.78162,58 h -34 c -0.75444,-36.55267 -10.05365,-74.79376 -15.27084,-111 -1.29618,-8.99518 -2.49564,-17.99792 -3.72916,-27 -0.45273,-3.30392 -0.26608,-8.87366 -2.74228,-11.39661 -4.74387,-4.83343 -23.70998,-1.60339 -30.25772,-1.60339 11.57663,-12.63232 32.50345,-21.95877 48,-28.86111 48.07388,-21.412658 106.26697,-35.503878 151,1.32486 34.224,28.17663 46,73.87481 46,116.53625 m 5,-131.999999 6.35648,10.999999 -5.67514,12 -17.68134,27 c -0.70908,-11.03839 7.19431,-24.58298 10.66666,-35 1.68347,-5.05038 2.77728,-10.966089 6.33334,-14.999999 m -244,2 3,15.999999 -10,-5 7,-10.999999 m 222,9.999999 -5,21 c -7.49646,-6.30334 -0.89359,-15.55908 5,-21 m -215,14 v 2 c -7.86029,2.79358 -12.60126,-1.68335 -19,-6 l 1,-4 18,8 m 248,-8 5,11 -19,10 14,-21 m -259,15 v 2 c -6.25807,2.45279 -12.16832,-0.87823 -11,-8 l 11,6 m 266,1 c 2.01657,8.73859 -24.55103,19.64276 -32,22 l -1,-1 v -2 l 33,-19 m -280,3 4,5 h -6 l 2,-5 m 283,7 2,5 -34,15 c 2.79172,-8.9285 23.6904,-16.54041 32,-20 m -244,5 0.88271,16.81558 -15.88271,13.23535 -33,33.94907 c 0,-22.03589 0.53621,-43.36169 5,-65 l 43,1 m 48,2 c -20.92642,8.02408 -24,16.43414 -24,38 14.66823,-4.99466 32.29558,-20.7381 24,-38 m 40,3 c 8.4494,2.86594 11.23871,3.36841 12,13 l -12,-13 m 159,1 0.88272,10.41125 -8.88272,2.98844 -24,4.60031 c 1.42856,-8.30463 24.33517,-15.79193 32,-18 m -132,7 -9,10 -1,-13 10,3 m 7,3 1,1 -16,18 c -1.76282,-8.00568 8.78781,-15.40912 15,-19 m 10,5 c -4.56216,6.47754 -11.78857,16.73294 -20,18 3.14893,-6.07779 12.42606,-20.4968 20,-18 m 118,1 c -0.0101,13.0593 -18.37729,22.32071 -30,26 4.81598,-8.41013 20.66153,-23.37885 30,-26 m -247,1 c 0.95024,12.04077 3.20274,24.03757 4.8696,36 0.89789,6.44379 2.5767,12.12878 -0.8696,18 h -1 c -4.03586,-11.922 -4.84863,-25.58765 -6.91975,-38 -1.14879,-6.88474 -3.24404,-12.15643 3.91975,-16 m 137,2 c -3.7818,6.04602 -10.35367,15.67426 -18,16 3.61093,-5.77283 10.51273,-16.64044 18,-16 m 95,1 v 1 l -16,13 -2,-11 18,-3 m -90,2 c 7.20969,4.95566 5,14.11081 5,22 -4.72949,-3.03122 -6.84671,-16.85117 -5,-22 m -153,3 6.41357,36 1.58643,20 h -1 c -4.33238,-12.77298 -6.36267,-26.8096 -9.20987,-40 -1.37756,-6.38193 -3.61928,-11.45767 2.20987,-16 m 148,4 1,12 -10,-3 7,-9 h 2 m 20,19 c -6.32471,-2.54245 -3.62903,-12.24167 -5,-18 5.77988,1.9183 4.88931,12.63892 5,18 m 90,-17 c -0.13248,11.11826 -18.80804,17.17307 -28,21 l -1,-4 29,-17 m -267,3 8,36 c -13.6983,-9.64929 -30.08508,-25.70111 -8,-36 m 183,2 3,16 c -4.89682,-2.99576 -5.07828,-11.04721 -3,-16 m 39,44 v 1 c -5.9949,0 -21.94733,-2.81296 -26.3974,1.60339 -4.66537,4.63001 -3.85013,20.06043 -4.733,26.39661 -3.20642,23.01138 -6.71399,45.98157 -9.8696,69 l -4,29 c -0.44879,3.26587 -0.31412,8.54599 -4.14813,9.6821 -4.72132,1.39902 -22.31726,2.34915 -26.25235,-0.70987 -2.74848,-2.1366 -2.75305,-8.78607 -3.40045,-11.97223 -1.9397,-9.54614 -4.81461,-18.94269 -8.40277,-28 -10.40397,-26.26175 -43.46543,-50.65176 -14.70679,-77.12964 3.89923,-3.59 8.12329,-6.60571 12.91049,-8.87036 l -2,-5 c -5.44119,3.03232 -10.4985,6.72186 -14.99924,11.03937 -3.45456,3.3139 -6.7222,6.79077 -9.12112,10.96063 -13.45886,23.39462 7.64511,39.69315 17.80014,59 8.88156,16.88574 14.81586,36.96497 16.32022,56 h 27 c 3.10349,0 7.86057,0.83353 10.56635,-1.02777 5.85665,-4.02881 5.49649,-26.13599 6.43365,-32.97223 3.33688,-24.34076 6.76724,-48.68564 10.27084,-73 0.98313,-6.8226 0.29346,-22.04184 4.74228,-27.39661 1.93872,-2.33352 6.31577,-1.6022 8.98688,-1.60339 5.67688,-0.003 25.62653,-3.13333 26.85187,4.05862 3.0061,17.64383 -0.0348,38.18232 -0.8125,55.94138 -1.46784,33.5177 -3.94705,67.48981 -4.03937,101 h -160 -45 c -5.16151,0 -13.98178,1.69507 -18.68288,-0.60339 -3.42465,-1.67438 -3.18921,-8.1789 -3.30632,-11.39661 -0.38762,-10.65076 -1.95863,-21.34213 -2.01004,-32 -0.21533,-44.64694 -0.91406,-89.58804 24.99924,-128 6.67999,12.56467 6.35767,34.82602 7.94984,49 0.55419,4.93341 0.17496,15.71082 3.79244,19.39661 2.21588,2.25772 6.40105,1.60211 9.25772,1.60339 6.58617,0.003 27.86874,3.38989 32.0116,-2.3179 2.49185,-3.43311 2.35733,-9.61844 3.07251,-13.6821 1.41986,-8.06781 3.68118,-16.23108 6.27081,-24 6.23968,-18.71902 16.86444,-32.64725 27.26157,-49 2.71408,-4.26877 4.22424,-14.08878 8.11114,-16.95758 4.74579,-3.50272 20.1908,2.97134 25.27237,4.62732 25.53143,8.3201 50.10617,20.77267 72,36.33026 m -30,-37 5,4 v 2 l -6,2 1,-8 m 75,1 c -2.51584,8.57251 -18.91675,17.93625 -27,21 l -1,-7 28,-14 m -284,8 c 7.68607,7.70731 33.92044,27.7832 28,39 l -32,-35 v -1 l 4,-3 m 223,4 c -4.64209,1.88812 -8.96295,4.17993 -12,-1 4.69815,-1.07343 8.27798,-2.75644 12,1 m 61,-2 v 16 l -18,-4 18,-12 m -291,6 c 8.58624,8.6579 16.65872,17.94781 24.83025,27 3.96531,4.39267 7.94279,7.86646 6.16975,14 -10.47949,-7.38193 -18.98907,-18.8613 -27.99614,-28 -4.17219,-4.23315 -8.05565,-8.02155 -3.00386,-13 m 237,3 h -8 c 3.04761,-2.37595 5.15314,-2.70084 8,0 m 13,13 -12,-7 c 5.09052,-2.93292 9.272,3.13028 12,7 m -256,-5 c 11.98096,8.81818 25.7757,23.56674 34,36 -12.60939,-5.96506 -41.25847,-18.70209 -34,-36 m 297,11 c -7.36514,-2.07458 -25.13498,-2.42795 -27,-11 8.32278,0.66235 26.6658,0.82095 27,11 m -25,-1 25,6 v 5 c -5.80923,-0.2533 -28.2005,-2.57471 -25,-11 m -65,41 c 0,-11.79669 1.07501,-23.23782 -11.00076,-29.59799 -2.41025,-1.26944 -7.72705,-4.05319 -10.39585,-2.28089 -3.04828,2.02436 -1.44015,9.05784 -0.67593,11.87888 2.70728,9.99371 11.93808,18.19235 22.07254,20 m -207,-30 22,15 -23,2 1,-17 m 297,6 v 7 c -7.07071,-2.30072 -24.5712,-4.694 -26,-13 l 26,6 m -9,9 c -3.336,5.10864 -11.26511,8.3479 -17,10 v -15 l 17,5 m 9,3 c -0.32614,9.81628 -17.76419,16.00296 -26,19 0.73837,-9.56592 18.0531,-15.69052 26,-19 m -263,1 -4,17 -19,-15 23,-2 m -34,2 c 8.21831,5.11789 27.41411,14.93579 29,25 -6.78786,-3.21109 -32.22031,-16.41284 -29,-25 m 297,9 c -0.32077,9.65417 -17.72995,15.61755 -26,18 0.70584,-8.87769 18.4462,-15.25116 26,-18 m -269,27 c -8.61601,-4.02744 -28.21422,-12.66379 -29,-23 8.76421,2.05948 28.27266,13.43253 29,23 m 269,-15 c -0.32022,9.78195 -17.51498,16.50412 -26,19 0.1264,-10.60809 16.88806,-16.37503 26,-19 m -270,27 c -8.31137,-3.58603 -27.24248,-12.16516 -28,-22 9.10173,1.76013 27.67303,12.00793 28,22 m 270,-15 v 14 l -16,-5 16,-9 m -279,16 v 1 l -18,6 -1,-18 19,11 m 279,3 v 5 c -7.21698,-1.06586 -25.65109,-3.84378 -27,-12 l 27,7 m -270,2 -1,7 -27,8 c 0.13351,-11.26758 18.40079,-14.1619 28,-15 m 244,1 c 6.91992,2.64883 24.54947,3.62057 26,12 -5.4498,-1.12787 -28.35278,-4.79059 -26,-12 m 26,23 c -10.56909,-1.96918 -28.01276,0.42365 -27,-13 7.70331,1.76599 26.27789,3.72534 27,13 m -271,-12 v 6 l -27,8 c 0.72621,-9.11249 19.49165,-11.55688 27,-14 m 0,11 c -1.40103,8.66461 -19.23544,18.05701 -27,21 l 1.02779,-11.29785 25.97221,-9.70215 m 261,5 v 1 l -19,10 1,-14 18,3 m 10,1 c -0.73303,9.51712 -20.57272,19.31464 -29,22 0.75784,-9.81799 20.78482,-18.15988 29,-22 m -270,4 v 13 l -16,-3 16,-10 m 270,8 c -0.72784,9.4296 -21.49463,19.05389 -30,21 2.56616,-8.72375 21.61819,-18.34668 30,-21 m -270,10 1,6 c -6.99623,-0.14441 -27.65616,0.0523 -29,-8 l 28,2 m 270,1 c -2.78317,9.46252 -21.63379,18.34225 -30,23 0.3605,-10.87497 21.28125,-18.40771 30,-23 m -269,15 -29,-6 c 5.21341,-3.6319 27.80167,-0.90106 29,6 m 269,-5 c -0.26898,8.19327 -7.9949,8.9693 -15,10 v -1 l 15,-9 m -282,8 v 1 l -16,5 v -9 l 16,3 m 14,1 1,8 -22,1 21,-9 m 268,3 v 6 h -19 l 19,-6 m -200,11 v 91 h -4 v -69 c 0,-5.95087 -2.78131,-19.74927 4,-22 m 107,0 v 91 h -4 v -91 h 4 m 75,31 h -1 c -7.59201,-5.78787 -16.45853,-8.9982 -26.00076,-6.21143 -14.33249,4.18573 -23.2804,21.93891 -14.86576,35.21143 10.62363,16.75677 39.86652,18.61337 39.86652,-5 -7.86227,-0.006 -10.7836,-1.88586 -12,-10 h 21 c 0,7.12381 2.57523,20.45264 -1.02777,26.71063 -7.32703,12.7262 -29.50272,12.86203 -40.97223,7.49307 -20.97256,-9.81741 -26.44238,-38.7041 -9.90973,-55.11035 8.66885,-8.60257 22.09192,-12.06375 33.90973,-9.19366 9.02701,2.19229 19.46365,6.9125 11,16.10031 m -250,-15 v 55 h 36 v 10 h -46 v -65 h 10 m 97,65 v -56 h -6 l -3,-9 c 14.62717,0 36.14517,-4.0271 49,4.13348 19.40851,12.32099 19.56628,44.07486 -0.004,56.53705 -11.11249,7.07648 -27.44247,4.32947 -39.996,4.32947 m 9,-56 v 46 c 7.659,0 18.10318,1.83777 25,-2.08951 13.64148,-7.76788 15.18506,-31.03116 1.98456,-40.0563 -7.69843,-5.26343 -18.16879,-3.85419 -26.98456,-3.85419 m 67,107 h -9 l 5,4 c -2.54935,16.33734 -27.09186,0.0648 -12.89505,-10.29626 1.68964,-1.23316 3.78687,-2.04682 5.89505,-2.03473 3.03192,0.0173 6.05176,1.70166 9,2.33099 -0.60458,-13.41589 -24.45486,-4.68579 -23.60571,8 0.70486,10.53027 16.23514,19.53918 24.00232,9.72223 2.42965,-3.07086 1.60339,-8.05975 1.60339,-11.72223 m -213,-12 v 27 h 19 c -1.94325,-5.85486 -9.87086,-4 -15,-4 v -23 h -4 m 76,0 3,27 c 4.99478,0 11.36304,1.0191 15.90665,-1.45679 8.96278,-4.88397 8.37886,-18.58508 0.0779,-23.68518 -5.22333,-3.20929 -13.1096,-1.85803 -18.98455,-1.85803 m 7,23 v -19 c 18.29311,0.0121 18.36348,18.98785 0,19 m -59,-15 v 19 h 15 v -4 h -12 l 9,-4 v -3 h -9 v -4 h 11 v -4 h -14 m 34,12 c -3.55481,4.2533 -6.54849,3.92249 -11,1 h -1 l -2,2 v 1 c 3.68536,2.50818 7.42807,4.40698 11.98148,2.99231 3.71298,-1.15356 7.59964,-5.56335 4.26158,-9.28937 -2.73346,-3.05115 -8.52463,-2.80737 -12.24306,-3.70294 v -1 l 12,-3 c -4.3201,-2.07898 -20.43713,-1.78491 -13.39197,6.56635 2.51059,2.97607 7.87908,2.59497 11.39197,3.43365 m 50,-12 v 19 h 16 c -1.73816,-5.23706 -7.31,-4 -12,-4 l 8,-4 v -3 h -8 v -4 h 11 v -4 h -15 m 22,0 c 0,4.56848 -1.06497,10.79456 1.17902,14.94519 2.98831,5.52741 12.19577,6.54871 15.64196,0.83026 2.4737,-4.10467 1.17902,-11.15454 1.17902,-15.77545 -6.71481,2.22864 -1.72687,9.25519 -5.60339,13.66669 -7.69471,8.75665 -8.39661,-10.33948 -8.39661,-13.66669 h -4 m 24,0 c 5.52554,9.6076 5.09985,9.78143 -1,19 4.58115,-0.34564 6.99506,-1.84009 9,-6 l 11,6 c -4.56781,-9.17401 -4.64352,-9.55762 -1,-19 l -8,6 -10,-6 m 66,0 v 19 h 4 v -7 l 5,-1 c 2.27463,4.73712 4.64297,7.39838 10,8 v -4 l -5,-4 c 13.08173,-8.50879 -8.57446,-11 -14,-11 m 26,0 v 19 h 4 v -19 h -4 m 25,12 v 2 c -4.56485,1.64758 -6.95624,1.87262 -11,-1 h -1 l -2,4 c 4.78497,2.12579 23.97058,2.12354 15.39584,-7.48608 -2.57052,-2.8808 -7.88388,-2.66809 -11.39584,-3.51392 v -1 l 12,-3 c -4.18021,-2.01166 -21.37976,-2.008 -14.24228,6.48608 2.62912,3.12885 8.5607,2.63495 12.24228,3.51392 m 10,-12 v 19 h 15 v -4 h -11 l 8,-4 v -3 h -8 v -4 h 11 c -1.94321,-5.85486 -9.87088,-4 -15,-4 m 34,15 -11,-2 h -1 l -2,2 v 1 c 14.47504,9.85138 25.24289,-8.83246 5,-9 l 11,-6 c -3.93161,-0.72992 -20.46796,-0.80731 -13.39197,7.56635 3.32529,3.93511 8.63666,1.43682 11.39197,6.43365 m -81,-10 v 2 l -10,1 v -4 z"
       id="path1" />
  </g>
</svg>
