<?xml version="1.0" encoding="UTF-8"?>
<svg id="Calque_1" data-name="Calque 1" xmlns="http://www.w3.org/2000/svg" viewBox="0 0 79.85 79.87">
  <defs>
    <style>
      .cls-1 {
        fill: #fff;
      }
    </style>
  </defs>
  <path class="cls-1" d="M79.65,23.48c-.19-4.24-.87-7.16-1.86-9.69-1.01-2.68-2.57-5.09-4.62-7.08-2-2.03-4.42-3.6-7.07-4.6-2.54-.98-5.44-1.67-9.69-1.86-4.28-.2-5.63-.25-16.48-.25s-12.2.05-16.46.23c-4.24.19-7.16.87-9.69,1.86-2.68,1.01-5.09,2.57-7.08,4.62-2.03,2-3.6,4.42-4.6,7.07-.98,2.54-1.67,5.44-1.86,9.69-.2,4.28-.25,5.63-.25,16.48s.05,12.2.23,16.46c.19,4.24.87,7.16,1.86,9.69,1.01,2.68,2.59,5.09,4.62,7.08,2,2.03,4.42,3.6,7.07,4.6,2.54.98,5.44,1.67,9.69,1.86,4.26.19,5.62.23,16.46.23s12.2-.05,16.46-.23c4.24-.19,7.16-.87,9.69-1.86,5.37-2.08,9.61-6.32,11.69-11.69.98-2.54,1.67-5.45,1.86-9.69.19-4.26.23-5.62.23-16.46s-.02-12.2-.2-16.46ZM72.46,56.09c-.17,3.9-.83,6.01-1.37,7.41-1.34,3.48-4.1,6.24-7.58,7.58-1.4.55-3.53,1.2-7.41,1.37-4.21.19-5.48.23-16.13.23s-11.94-.05-16.13-.23c-3.9-.17-6.01-.83-7.41-1.37-1.73-.64-3.31-1.65-4.59-2.98-1.33-1.3-2.34-2.86-2.98-4.59-.55-1.4-1.2-3.53-1.37-7.41-.19-4.21-.23-5.48-.23-16.13s.05-11.94.23-16.13c.17-3.9.83-6.01,1.37-7.41.64-1.73,1.65-3.31,3-4.59,1.29-1.33,2.85-2.34,4.59-2.98,1.4-.55,3.53-1.2,7.41-1.37,4.21-.19,5.48-.23,16.13-.23s11.94.05,16.13.23c3.9.17,6.01.83,7.41,1.37,1.73.64,3.31,1.65,4.59,2.98,1.33,1.3,2.34,2.86,2.98,4.59.55,1.4,1.2,3.53,1.37,7.41.19,4.21.23,5.48.23,16.13s-.05,11.9-.23,16.12Z"/>
  <path class="cls-1" d="M39.94,19.42c-11.33,0-20.52,9.19-20.52,20.52s9.19,20.52,20.52,20.52,20.52-9.19,20.52-20.52-9.19-20.52-20.52-20.52ZM39.94,53.25c-7.35,0-13.31-5.96-13.31-13.31s5.96-13.31,13.31-13.31,13.31,5.96,13.31,13.31-5.96,13.31-13.31,13.31Z"/>
  <path class="cls-1" d="M66.06,18.61c0,2.65-2.14,4.79-4.79,4.79s-4.79-2.14-4.79-4.79,2.14-4.79,4.79-4.79,4.79,2.14,4.79,4.79Z"/>
</svg>