<?xml version="1.0" encoding="UTF-8"?>
<svg id="Calque_1" data-name="Calque 1" xmlns="http://www.w3.org/2000/svg" viewBox="0 0 84.15 84.15">
  <defs>
    <style>
      .cls-1 {
        fill: #fff;
      }
    </style>
  </defs>
  <path class="cls-1" d="M79.5,0H4.64C2.08,0,0,2.08,0,4.64v74.86c0,2.56,2.08,4.64,4.64,4.64h40.3v-32.54h-10.93v-12.74h10.93v-9.37c0-10.87,6.64-16.79,16.33-16.79,4.64,0,8.64.35,9.8.5v11.36h-6.69c-5.28,0-6.3,2.51-6.3,6.19v8.11h12.61l-1.64,12.74h-10.97v32.54h21.4c2.56,0,4.64-2.08,4.64-4.64h0V4.64C84.15,2.08,82.07,0,79.5,0Z"/>
</svg>